<svg width="383" height="374" viewBox="0 0 383 374" fill="none" xmlns="http://www.w3.org/2000/svg">
<g filter="url(#filter0_d_2861_3433)">
<path d="M306.878 268.946C258.998 332.885 168.358 345.903 104.415 298.023C40.4796 250.138 27.4616 159.494 75.3436 95.5499C123.22 31.6199 213.871 18.5999 277.809 66.4819C341.75 114.365 354.758 205.01 306.878 268.946Z" fill="#0E6B87"/>
<path d="M190.93 327.253C160.677 327.253 130.187 317.85 104.162 298.363C40.1439 250.416 27.0639 159.322 75.0049 95.2987C98.2279 64.2887 132.139 44.1777 170.492 38.6707C208.846 33.1637 247.048 42.9217 278.061 66.1467C309.075 89.3717 329.187 123.284 334.693 161.637C340.198 199.988 330.44 238.189 307.215 269.202C278.763 307.197 235.102 327.253 190.93 327.253ZM191.415 38.0137C184.514 38.0137 177.568 38.5077 170.613 39.5057C132.483 44.9807 98.7699 64.9747 75.6819 95.8047C28.0189 159.455 41.0219 250.018 104.669 297.686C130.538 317.057 160.858 326.407 190.931 326.408C234.851 326.41 278.249 306.473 306.54 268.693C329.63 237.86 339.332 199.882 333.858 161.754C328.385 123.625 308.389 89.9107 277.556 66.8207C252.346 47.9427 222.356 38.0137 191.415 38.0137Z" fill="#1A74B2"/>
<path d="M81.1378 272.769C81.8778 274.484 82.5428 276.263 83.3528 277.945C83.5958 278.514 83.8788 279.063 84.1788 279.602C84.7628 280.236 85.3518 280.878 85.9488 281.504C88.2148 280.379 90.4708 279.246 92.7338 278.108C93.2208 277.003 93.6118 275.864 93.9028 274.692C94.4458 272.485 94.7738 269.971 95.7948 267.908C97.5528 264.364 100.337 261.117 104.281 259.9C109.149 258.4 116.198 257.93 120.001 254.219C120.894 253.355 121.905 252.315 123.117 251.912C129.27 249.849 135.912 249.779 142.23 248.058C150.642 245.773 156.042 241.565 163.213 236.886C169.51 232.77 179.446 232.016 183.804 225.38C189.634 216.501 180.572 209.026 176.567 201.548C172.435 193.836 167.666 185.024 168.691 175.958C169.628 167.678 174.77 156.849 171.78 148.688C170.36 144.81 167.91 146.053 165.916 143.639C164.434 141.84 163.527 139.761 162.109 137.952C157.748 132.409 149.552 133.689 143.568 134.575C141.135 134.931 132.873 136.272 132.869 131.709C132.867 124.175 140.473 109.902 148.379 118.907C153.027 124.207 164.082 124.06 165.835 115.968C166.557 112.654 164.749 110.781 163.155 108.476C161.572 106.19 159.993 104.062 160.038 101.219C160.083 98.1542 165.139 98.4362 166.91 98.9312C171.4 100.192 179.687 103.128 180.606 108.546C181.217 112.125 180.6 119.68 184.152 121.563C191.707 125.568 194.388 120.521 199.699 117.687C205.743 114.462 211.417 119.164 215.964 122.713C222.881 128.102 231.052 131.081 236.07 138.555C240.114 144.579 245.215 140.947 250.256 138.047C253.417 136.227 256.51 134.291 259.603 132.357C262.96 130.265 267.06 128.66 269.901 125.893C275.948 120.007 273.927 109.474 267.446 104.602C259.383 98.5402 250.026 94.4842 242.818 87.1862C240.432 84.7772 238.231 82.1442 238.066 78.5642C237.837 73.4082 239.894 67.9932 235.522 63.9072C234.827 63.2582 235.018 62.1922 235.93 61.7942C243.508 58.4372 248.018 63.7182 255.182 65.4412C260.153 66.6342 264.885 64.0082 269.53 60.7212C225.332 32.1412 170.518 30.6302 125.84 53.1832C128.695 55.5342 133.004 58.9662 132.715 62.2202C132.512 64.5092 131.781 66.0402 130.554 67.9822C127.768 72.3882 128.311 74.6162 130.742 78.4872C138.049 90.1482 120.621 103.901 121.621 115.797C122.025 120.558 122.971 133.947 113.865 130.362C110.34 128.972 107.599 126.403 104.416 124.436C92.9398 117.366 95.8328 134.999 96.9698 140.822C99.3568 153.052 91.5928 154.209 81.4628 157.591C75.7478 159.504 79.3318 169.894 77.6568 175.266C75.0768 183.5 70.1168 189.129 65.8408 196.392C61.8068 203.247 66.1608 204.955 67.7508 210.38C68.7128 213.663 69.3618 216.963 69.7138 220.373C70.5228 228.286 72.2868 236.622 71.8018 244.587C71.3658 251.745 76.2958 258.821 78.7218 265.4C78.9658 266.064 80.0388 269.094 81.1378 272.769Z" fill="#0E6B87"/>
<path d="M327.432 133.93C320.14 135.284 313.696 137.927 314.479 146.087C314.926 150.78 317.191 157.513 312.449 160.614C310.428 161.932 306.775 161.061 304.843 160.081C297.475 156.366 291.875 165.899 288.319 171.123C285.558 175.17 282.742 178.953 279.237 182.384C271.348 190.087 283.132 194.517 290.027 194.496C290.65 194.492 291.794 194.778 291.626 195.667C291.084 198.556 289.953 200.463 288.332 202.918C284.287 209.07 290.62 210.637 295.166 212.329C299.579 213.981 302.876 215.416 303.303 220.353C303.666 224.538 297.236 226.63 301.891 231.957C303.892 234.245 304.236 235.642 304.352 238.688C304.578 244.362 296.206 247.177 292.745 249.625C291.904 250.211 290.482 250.469 289.987 249.308C287.498 243.454 284.615 231.19 276.146 235.499C273.862 236.657 271.114 237.479 268.971 235.357C265.035 231.476 261.834 218.19 254.13 223.276C250.979 225.364 247.879 227.92 244.242 229.118C238.924 230.871 235.28 229.858 230.209 227.816C217.635 222.746 219.496 235.105 216.456 241.93C215.146 244.876 213.385 247.889 212.615 251.038C211.444 255.845 216.928 256.228 219.336 257.624C221.945 259.13 223.862 260.947 224.252 264.038C225.046 270.411 226.214 280.148 218.643 282.815C216.055 283.715 213.243 283.994 210.698 284.974C204.29 287.446 205.263 291.51 205.346 296.496C205.413 300.618 204.464 303.259 201.252 305.887C199.433 307.367 196.543 307.896 194.375 308.489C189.978 309.694 186.611 311.665 183.023 314.452C179.913 316.878 176.271 320.067 172.167 320.548C164.256 321.501 157.465 316.612 149.408 318.819C148.362 319.105 147.337 319.443 146.305 319.77C203.572 338.43 268.768 319.841 306.876 268.947C336.986 228.743 342.997 177.983 327.432 133.93ZM318.886 188.571C314.78 191.273 309.328 192.952 304.407 193.065C303.613 193.089 302.438 192.571 302.884 191.551C304.328 188.245 306.499 184.6 310.144 183.415C313.677 182.271 316.986 183.588 319.775 185.813C320.557 186.44 320.249 187.236 319.609 187.726C319.465 188.06 319.215 188.353 318.886 188.571Z" fill="#0E6B87"/>
<path d="M185.019 100.39C187.605 103.465 185.894 108.047 185.506 111.47C184.314 121.992 190.984 114.901 194.979 113.276C198.692 111.77 199.82 109.302 204.422 110.278C209.025 111.253 213.197 113.31 217.347 115.494C223.008 118.461 228.088 121.247 232.809 125.628C240.185 132.453 244.606 137.075 255.39 130.209C260.609 126.886 270.983 119.962 264.848 112.172C260.601 106.783 255.358 104.398 249.306 101.526C243.307 98.6682 238.68 95.6832 234.566 90.3672C231.471 86.3522 231.859 80.5172 228.855 76.1342C226.712 72.9922 223.27 68.9962 222.804 65.0382C221.781 56.4412 232.404 55.5182 238.663 56.0172C240.8 56.1902 243.463 57.8712 245.269 58.9342C251.997 62.8842 257.244 62.0262 263.767 59.6282C264.611 59.3152 265.45 59.0012 266.284 58.7042C223.981 32.8962 172.622 31.2502 129.803 51.2472C129.956 52.1082 130.454 52.9262 131.438 53.6572C132.114 54.0832 132.727 54.5682 133.279 55.1262C134.262 56.3982 135.907 58.3512 135.569 60.1422C134.551 65.5822 129.155 72.7852 134.851 77.9162C136.367 79.2832 137.807 80.7432 138.431 82.7622C140.4 89.1452 132.982 94.3782 131.127 99.9182C127.571 110.539 124.358 121.338 123.193 132.51C123.046 133.935 121.323 135.07 119.926 134.749C114.448 133.509 110.29 130.354 105.192 128.217C94.5973 123.785 102.393 143.25 102.588 146.43C103.421 160.033 92.6373 159.132 82.9113 160.564C84.1123 167.594 84.0753 173.564 80.7173 180.313C75.6353 190.538 68.1493 199.958 70.4433 212.091C72.5253 223.072 75.5833 233.288 76.6043 244.475C77.7733 257.259 83.9053 266.845 89.3743 277.674C91.2013 271.614 88.7793 262.567 94.5203 258.813C101.486 254.257 109.763 255.404 116.235 249.512C119 247.003 123.568 246.949 126.97 246.941C133.454 246.919 139.202 247.099 145.005 243.145C155.394 236.054 163.882 231.702 175.594 227.562C197.365 219.873 159.359 193.636 163.716 178.69C167.17 166.851 168.164 149.685 156.29 141.496C150.014 137.165 141.612 140.1 134.459 137.444C132.468 138.618 130.499 139.375 128.901 138.785C125.698 137.608 126.471 133.349 126.531 130.642C126.646 125.429 127.158 119.612 131.495 116.058C136.031 112.345 141.571 110.334 146.243 106.814C145.339 104.056 142.568 99.3492 143.4 97.5292C145.147 93.7112 148.23 90.7022 150.834 87.4542C151.67 86.4212 153.03 85.9682 154.313 86.3872C164.237 89.6002 177.962 92.0092 185.019 100.39Z" fill="#4C9B5F"/>
<path d="M303.604 266.747C301.355 263.332 299.79 255.462 294.15 256.645C293.256 256.83 291.432 256.732 291.092 255.65C290.753 255.587 290.413 255.538 290.079 255.456C289.892 255.417 289.766 255.341 289.609 255.278C289.452 255.379 289.282 255.526 289.118 255.621C287.964 256.313 285.967 256.233 285.444 254.769C284.001 250.736 283.295 246.781 282.342 242.651C281.212 237.81 272.976 240.911 269.797 241.535C269.075 241.68 268.112 241.35 267.674 240.755C263.986 235.718 257.62 224.163 250.674 230.742C247.729 233.529 246.011 234.128 242.016 234.761C237.78 235.438 232.403 234.341 228.108 234.03C222.376 233.618 215.614 248.753 222.356 251.078C228.759 253.288 234.088 257.472 235.21 264.441C236.217 270.734 238.578 281.687 234.702 287.419C233.59 289.047 232.062 290.389 230.016 290.692C223.317 291.694 217.559 293.465 214.979 300.416C211.615 309.44 211.035 311.448 202.386 316.6C195.309 320.825 188.91 323.071 180.57 323.214C175.064 323.308 169.692 323.231 164.854 324.189C216.837 333.553 272.043 314.017 306.01 269.033C305.08 268.479 304.248 267.734 303.604 266.747Z" fill="#4C9B5F"/>
<path d="M328.759 137.934C327.772 138.014 326.814 138.126 325.872 138.293C314.93 140.335 319.085 153.397 318.641 161.037C318.402 165.116 315.866 175.318 318.792 178.807C321.433 181.963 328.103 188.346 322.519 192.344C315.424 197.436 306.349 197.829 299.001 202.28C298.977 202.301 298.938 202.297 298.914 202.319C297.808 203.02 296.727 203.753 295.699 204.544C294.252 205.67 292.749 206.723 295.052 208.281C296.873 209.515 298.985 210.118 301.151 210.453C304.432 210.965 307.763 211.031 311.046 211.527C311.675 211.621 312.237 211.963 312.558 212.452C313.537 212.671 314.193 213.357 313.676 214.542C311.24 220.122 319.855 223.161 316.487 228.571C315.512 230.144 314.119 231.455 313.036 232.762C312.506 234.362 312.042 235.98 311.701 237.629C311.906 238.232 312.24 238.876 312.779 239.586C312.83 239.647 312.9 239.724 312.953 239.801C316.374 241.113 319.936 243.31 319.64 247.248C319.593 247.859 319.497 248.448 319.362 249.047C337.614 214.064 340.335 173.984 328.759 137.934Z" fill="#4C9B5F"/>
<path d="M304.536 182.909C305.595 180.336 306.344 177.424 306.519 174.508C306.636 174.125 306.733 173.728 306.885 173.36C307.68 171.393 308.452 169.311 308.604 167.194C308.852 163.825 304.634 162.604 302.159 163.967C298.002 166.247 293.358 169.301 290.452 173.052C288.37 175.737 285.658 179.09 286.75 182.709C287.774 186.113 292.906 187.374 295.852 187.926C298.829 188.474 303.407 185.641 304.536 182.909Z" fill="#4C9B5F"/>
<path d="M162.319 115.507C161.97 111.897 158.966 108.776 155.183 109.667C154.821 109.595 154.403 109.674 154.166 109.922C154.092 109.993 154.015 110.08 153.939 110.156C153.189 110.602 152.645 111.274 152.265 112.05C150.861 113.805 149.751 115.855 150.191 118.101C150.794 121.197 155.302 122.8 158.035 122.323C161.061 121.789 162.592 118.261 162.319 115.507Z" fill="#4C9B5F"/>
<path d="M186.085 38.7812C186.085 38.7812 67.9831 45.4123 52.7051 160.566C52.7051 160.566 76.4641 55.9182 186.085 38.7812Z" fill="white"/>
<path d="M232.136 24.7662C232.33 25.6393 231.98 26.5082 231.33 26.7384C230.656 26.9765 229.913 26.4376 229.671 25.5331C227.83 18.6817 223.586 7.34294 220.028 6.08231C219.675 5.95765 218.601 5.57584 217.197 7.53209C210.554 16.793 209.586 35.6683 209.576 35.8585C209.533 36.7827 208.917 37.4209 208.202 37.2818C207.487 37.1446 206.943 36.2849 206.986 35.3577C207.025 34.538 208.012 15.1694 215.231 5.10609C217.196 2.36751 219.181 2.35158 220.501 2.8197C226.678 5.01155 231.574 22.6636 232.112 24.6694C232.121 24.7018 232.129 24.7344 232.136 24.7662Z" fill="#FFC107"/>
<path d="M238.797 45.6068C238.805 45.6395 238.811 45.6723 238.817 45.7063C256.126 143.995 244.492 222.367 231.685 270.807C223.27 302.632 213.635 324.486 207.035 337.214C199.143 352.432 191.32 362.783 186.106 364.902C181.593 366.736 177.556 366.067 174.106 362.914C165.144 354.718 163.587 332.542 163.525 331.603C163.463 330.668 163.992 329.912 164.706 329.913C165.42 329.914 166.048 330.67 166.11 331.608C166.124 331.821 167.617 353.024 175.47 360.201C178.218 362.712 181.382 363.19 185.142 361.662C188.792 360.179 195.884 352.436 204.846 335.154C211.368 322.576 220.891 300.969 229.223 269.459C241.925 221.421 253.462 143.691 236.29 46.1855C236.127 45.2602 236.561 44.4025 237.258 44.2705C237.931 44.1424 238.604 44.7346 238.797 45.6068Z" fill="#FFC107"/>
<path d="M232.512 48.1398L242.99 48.7415L234.55 30.4565L232.512 48.1398Z" fill="#FFC107"/>
<path d="M25.0363 216.281C25.7633 215.778 26.764 215.926 27.3144 216.631C27.8842 217.362 27.7545 218.417 27.0226 218.988C21.4803 223.312 12.9213 231.901 13.548 236.543C13.6106 237.003 13.7987 238.405 16.3677 239.475C28.5283 244.536 46.8845 239.834 47.0694 239.786C47.9661 239.551 48.885 240.088 49.119 240.986C49.3547 241.882 48.8197 242.799 47.9198 243.035C47.1246 243.243 28.2919 248.076 15.0772 242.576C11.4812 241.079 10.4507 238.712 10.2187 236.991C9.13377 228.931 23.3339 217.605 24.9569 216.34C24.983 216.319 25.0096 216.299 25.0363 216.281Z" fill="#FFC107"/>
<path d="M41.3529 201.858C41.38 201.839 41.4076 201.821 41.437 201.804C125.593 150.62 205.704 140.193 258.091 140.457C292.51 140.63 318.116 145.356 333.536 149.29C351.973 153.993 365.768 160.126 370.439 165.696C374.483 170.518 375.915 175.548 374.695 180.647C371.523 193.896 351.335 202.64 350.477 203.005C349.624 203.369 348.639 202.972 348.274 202.119C347.91 201.266 348.304 200.281 349.16 199.915C349.355 199.833 368.655 191.468 371.43 179.86C372.401 175.798 371.235 171.871 367.866 167.853C364.596 163.954 353.643 157.886 332.706 152.544C317.469 148.657 292.153 143.988 258.074 143.816C206.121 143.553 126.668 153.898 43.1827 204.673C42.3904 205.155 41.3569 204.903 40.8752 204.11C40.41 203.347 40.6263 202.359 41.3529 201.858Z" fill="#FFC107"/>
<path d="M46.9643 208.581L42.1756 195.878L29.1888 211.634L46.9643 208.581Z" fill="#FFC107"/>
<path d="M274 86.7857C273.526 86.7857 273.072 86.5976 272.737 86.2627C272.402 85.9278 272.214 85.4736 272.214 85C272.214 84.5264 272.402 84.0722 272.737 83.7373C273.072 83.4024 273.526 83.2143 274 83.2143C274.474 83.2143 274.928 83.4024 275.263 83.7373C275.598 84.0722 275.786 84.5264 275.786 85C275.786 85.2345 275.74 85.4667 275.65 85.6834C275.56 85.9 275.429 86.0969 275.263 86.2627C275.097 86.4285 274.9 86.56 274.683 86.6498C274.467 86.7395 274.235 86.7857 274 86.7857ZM274 80C272.674 80 271.402 80.5268 270.464 81.4645C269.527 82.4021 269 83.6739 269 85C269 88.75 274 94.2857 274 94.2857C274 94.2857 279 88.75 279 85C279 83.6739 278.473 82.4021 277.536 81.4645C276.598 80.5268 275.326 80 274 80Z" fill="#FF0707"/>
<path d="M186 122.786C185.526 122.786 185.072 122.598 184.737 122.263C184.402 121.928 184.214 121.474 184.214 121C184.214 120.526 184.402 120.072 184.737 119.737C185.072 119.402 185.526 119.214 186 119.214C186.474 119.214 186.928 119.402 187.263 119.737C187.598 120.072 187.786 120.526 187.786 121C187.786 121.235 187.74 121.467 187.65 121.683C187.56 121.9 187.429 122.097 187.263 122.263C187.097 122.429 186.9 122.56 186.683 122.65C186.467 122.74 186.235 122.786 186 122.786ZM186 116C184.674 116 183.402 116.527 182.464 117.464C181.527 118.402 181 119.674 181 121C181 124.75 186 130.286 186 130.286C186 130.286 191 124.75 191 121C191 119.674 190.473 118.402 189.536 117.464C188.598 116.527 187.326 116 186 116Z" fill="#FF0707"/>
<path d="M126 277.643C125.526 277.643 125.072 277.455 124.737 277.12C124.402 276.785 124.214 276.331 124.214 275.857C124.214 275.384 124.402 274.93 124.737 274.595C125.072 274.26 125.526 274.072 126 274.072C126.474 274.072 126.928 274.26 127.263 274.595C127.598 274.93 127.786 275.384 127.786 275.857C127.786 276.092 127.74 276.324 127.65 276.541C127.56 276.757 127.429 276.954 127.263 277.12C127.097 277.286 126.9 277.417 126.683 277.507C126.467 277.597 126.235 277.643 126 277.643ZM126 270.857C124.674 270.857 123.402 271.384 122.464 272.322C121.527 273.26 121 274.531 121 275.857C121 279.607 126 285.143 126 285.143C126 285.143 131 279.607 131 275.857C131 274.531 130.473 273.26 129.536 272.322C128.598 271.384 127.326 270.857 126 270.857Z" fill="#FF0707"/>
<path d="M287 248.786C286.526 248.786 286.072 248.598 285.737 248.263C285.402 247.928 285.214 247.474 285.214 247C285.214 246.526 285.402 246.072 285.737 245.737C286.072 245.402 286.526 245.214 287 245.214C287.474 245.214 287.928 245.402 288.263 245.737C288.598 246.072 288.786 246.526 288.786 247C288.786 247.235 288.74 247.467 288.65 247.683C288.56 247.9 288.429 248.097 288.263 248.263C288.097 248.429 287.9 248.56 287.683 248.65C287.467 248.74 287.235 248.786 287 248.786ZM287 242C285.674 242 284.402 242.527 283.464 243.464C282.527 244.402 282 245.674 282 247C282 250.75 287 256.286 287 256.286C287 256.286 292 250.75 292 247C292 245.674 291.473 244.402 290.536 243.464C289.598 242.527 288.326 242 287 242Z" fill="#FF0707"/>
</g>
<defs>
<filter id="filter0_d_2861_3433" x="6.16016" y="2.58984" width="372.957" height="371.32" filterUnits="userSpaceOnUse" color-interpolation-filters="sRGB">
<feFlood flood-opacity="0" result="BackgroundImageFix"/>
<feColorMatrix in="SourceAlpha" type="matrix" values="0 0 0 0 0 0 0 0 0 0 0 0 0 0 0 0 0 0 127 0" result="hardAlpha"/>
<feOffset dy="4"/>
<feGaussianBlur stdDeviation="2"/>
<feComposite in2="hardAlpha" operator="out"/>
<feColorMatrix type="matrix" values="0 0 0 0 0 0 0 0 0 0 0 0 0 0 0 0 0 0 0.25 0"/>
<feBlend mode="normal" in2="BackgroundImageFix" result="effect1_dropShadow_2861_3433"/>
<feBlend mode="normal" in="SourceGraphic" in2="effect1_dropShadow_2861_3433" result="shape"/>
</filter>
</defs>
</svg>
